<svg xmlns="http://www.w3.org/2000/svg" viewBox="0 0 382.38 407.2">
  <defs>
    <style>
      .a, .b {
        fill: #fff;
      }

      .b {
        font-size: 40.66px;
        font-family: HelveticaNeue-Roman, Helvetica Neue;
        letter-spacing: 0.2em;
      }
    </style>
  </defs>
  <g>
    <path class="a" d="M283.29,358.77c.46-53.84,5.4-54.6,56.36-58.07V286.26s-27.62.11-79.16,0-82.36,0-82.36,0V300.7c49.89,3.48,54.65,4.23,55.08,58.42a92.79,92.79,0,0,1,50.08-.35Z" transform="translate(-106.67 -246.06)"/>
    <path class="a" d="M283.24,373.41v-2.05a80.73,80.73,0,0,0-50,.42c0,.55,0,1.07,0,1.63v98.11c-.51,22.45.23,39.57-.87,53a80.75,80.75,0,0,0,54-.37c-2.79-12.75-3-28.79-3.18-51.16C283,424.82,283.24,373.41,283.24,373.41Z" transform="translate(-106.67 -246.06)"/>
    <path class="a" d="M489.06,480.27l-3.92-.54L469.56,478c-5.55,16.62-10.87,31.11-16.34,42.58,0,0-5.05,15.3-20.43,31.39S387,577,367.51,576.78s-39.49-3.65-57.88-17.6c-9.66-7.33-15.74-14.64-19.59-23.49a92.94,92.94,0,0,1-59.45,1c-4.5,18.84-17.23,28.41-53.29,36.32l.08,18.28S240,545.94,316.2,578.41c72.39,30.85,148.9-3,148.9-3C450.23,550.78,459.32,510.82,489.06,480.27Z" transform="translate(-106.67 -246.06)"/>
    <path class="a" d="M178.19,448.28c0-1.49.1-3,.18-4.43a104.94,104.94,0,0,0,9.91-4.11,64.76,64.76,0,0,0,26.2-22.26Q224,403.32,224,387.74a54.44,54.44,0,0,0-1.19-11.56,79.94,79.94,0,0,1,10.48-4.4c0-4.52,0-8.73,0-12.66a91.84,91.84,0,0,0-14.58,5.59,42.17,42.17,0,0,0-2.34-4q-7.66-11.44-23.19-19.08-12.58-6.21-30.6-8.59a267.17,267.17,0,0,0-35.08-2.38V256.4q35.17,0,67.58.15l33.62.16V246.06l-21.9.08q-21.19.08-36,.08-17.58,0-35.94-.08L115,246.06q0,1.42.08,20.19t.09,30.22V324q0,14.63-.17,16.38c.92,0,2.32,0,4.22.08s3.54.08,4.91.08q18.63.47,31.38,2.06a98,98,0,0,1,23.1,5.57q17.59,6.68,24.74,17.57a49,49,0,0,1,3.31,5.89,92.67,92.67,0,0,0-39.81,65.28c-3.76,1.08-7.69,2.07-11.94,2.85-11.44,2.12-23.86,3-38.11,3-1,0-1.46,0-4.53-.11a47,47,0,0,1-5.61-.54v9.23c1.39.22,5.07,1,7.82,1.19,3.14.23,4.42.31,6.38.31a188.32,188.32,0,0,0,38.27-3.49c2.4-.51,4.71-1.07,7-1.65,0,.22,0,.43,0,.64a92.81,92.81,0,0,0,64.5,88.38,80.29,80.29,0,0,0,1.8-12.16A80.71,80.71,0,0,1,178.19,448.28ZM210.24,384a35.41,35.41,0,0,1,.28,4.25,45,45,0,0,1-6.64,24Q197.24,423,184,430.2c-1.3.69-2.71,1.31-4.1,1.95A80.57,80.57,0,0,1,210.24,384Z" transform="translate(-106.67 -246.06)"/>
    <path class="a" d="M339.56,448.28a80.69,80.69,0,0,1-53.14,75.85A62.78,62.78,0,0,0,290,535.69a92.79,92.79,0,0,0-6.75-176.92q0,5.87-.05,12.59A80.71,80.71,0,0,1,339.56,448.28Z" transform="translate(-106.67 -246.06)"/>
  </g>
  <text class="b" transform="translate(7.57 398.5) scale(1.13 1)">SEDAN</text>
  <g>
    <path class="a" d="M349.72,623.6h-8.67v-3.24h1c7.39,0,8.47-3.48,8.64-5.43h3.44v29.63h-4.4Z" transform="translate(-106.67 -246.06)"/>
    <path class="a" d="M379.14,637.75c.46,2.66,2.95,4,5.77,4,4.77,0,8.26-2,8.76-10.54h-.08c-1.13,1.91-4.28,3.82-8.47,3.82-5,0-11.12-2.33-11.12-9.88,0-4.36,3.15-10,11.49-10,8.8,0,12.33,5.4,12.33,14.49,0,15.11-9.13,15.65-13.12,15.65-3.48,0-8.92-1.46-9.71-7.48Zm6.52-19.17c-5,0-7.26,2.95-7.26,6.47s2.24,6.48,7.26,6.48,7.3-2.95,7.3-6.48S390.72,618.58,385.66,618.58Z" transform="translate(-106.67 -246.06)"/>
    <path class="a" d="M413.21,615.76h22.37v3.65c-6.22,7.84-10.29,15.27-12.45,25.15h-4.6a62.05,62.05,0,0,1,12.94-24.73H413.21Z" transform="translate(-106.67 -246.06)"/>
    <path class="a" d="M457.82,623.6h-8.67v-3.24h1c7.38,0,8.46-3.48,8.63-5.43h3.44v29.63h-4.4Z" transform="translate(-106.67 -246.06)"/>
  </g>
</svg>
